<svg width="420" height="150" viewBox="0 0 420 150" fill="none" xmlns="http://www.w3.org/2000/svg">
  <rect width="420" height="150" rx="22" fill="white"/>
  <circle cx="72" cy="54" r="34" fill="#D61F55"/>
  <path d="M54 57C60.5 45.5 74.8 41.9 86.5 47.2C91.4 49.4 95.4 53.3 97.7 58.1" stroke="white" stroke-width="5.5" stroke-linecap="round"/>
  <path d="M91 52.5C86 63.1 73.6 69.2 62.1 66.7C57.3 65.7 52.9 63 49.8 59.2" stroke="white" stroke-width="5.5" stroke-linecap="round"/>
  <path d="M49 53.6C57.2 48.9 67.2 48.1 76 51.5C81.6 53.6 86.4 57.7 89.4 62.9" stroke="white" stroke-width="5.5" stroke-linecap="round" opacity="0.92"/>
  <path d="M105 106C124 93 146 88 172 88C193 88 210 92 229 100C245 106 261 110 282 110C301 110 319 106 339 97" stroke="#1D1718" stroke-width="3.2" stroke-linecap="round" opacity="0.82"/>
  <text x="115" y="88" fill="#1D1718" font-family="Georgia, 'Times New Roman', serif" font-size="44" letter-spacing="1.5">BELLOSUL</text>
  <text x="315" y="104" fill="#D61F55" font-family="Arial, Helvetica, sans-serif" font-size="18" letter-spacing="2.4">papéis</text>
</svg>
